<svg width="44" height="41" viewBox="0 0 44 41" fill="none" xmlns="http://www.w3.org/2000/svg">
<path d="M5.95184 39.6158C4.11718 39.6158 2.66651 39.0825 1.59984 38.0158C0.533177 36.9492 -0.000155926 35.4985 -0.000155926 33.6638V0.575825C0.469177 0.490493 1.21584 0.383826 2.23984 0.255825C3.26384 0.085158 4.24518 -0.000175476 5.18384 -0.000175476C6.16518 -0.000175476 7.01851 0.085158 7.74384 0.255825C8.51184 0.383826 9.15184 0.639826 9.66384 1.02383C10.1758 1.40783 10.5598 1.94116 10.8158 2.62383C11.0718 3.30649 11.1998 4.20249 11.1998 5.31182V30.5918H25.8558C26.1545 31.0612 26.4318 31.7012 26.6878 32.5118C26.9438 33.2798 27.0718 34.0905 27.0718 34.9438C27.0718 36.6505 26.7092 37.8665 25.9838 38.5918C25.2585 39.2745 24.2985 39.6158 23.1038 39.6158H5.95184ZM31.3103 34.2398C31.3103 32.4478 31.865 30.9545 32.9743 29.7598C34.0837 28.5652 35.5983 27.9678 37.5183 27.9678C39.4383 27.9678 40.953 28.5652 42.0623 29.7598C43.1717 30.9545 43.7263 32.4478 43.7263 34.2398C43.7263 36.0318 43.1717 37.5252 42.0623 38.7198C40.953 39.9145 39.4383 40.5118 37.5183 40.5118C35.5983 40.5118 34.0837 39.9145 32.9743 38.7198C31.865 37.5252 31.3103 36.0318 31.3103 34.2398Z" fill="white"/>
</svg>
